<svg width="19" height="19" viewBox="0 0 19 19" fill="none" xmlns="http://www.w3.org/2000/svg">
<path d="M15.2 15.2C15.7039 15.2 16.1872 15.4002 16.5435 15.7565C16.8998 16.1128 17.1 16.5961 17.1 17.1C17.1 17.6039 16.8998 18.0872 16.5435 18.4435C16.1872 18.7999 15.7039 19 15.2 19C14.6961 19 14.2128 18.7999 13.8565 18.4435C13.5002 18.0872 13.3 17.6039 13.3 17.1C13.3 16.0455 14.1455 15.2 15.2 15.2ZM0 3.05176e-05H3.1065L3.9995 1.90003H18.05C18.302 1.90003 18.5436 2.00012 18.7218 2.17828C18.8999 2.35644 19 2.59807 19 2.85003C19 3.01153 18.9525 3.17303 18.886 3.32503L15.485 9.47153C15.162 10.051 14.535 10.45 13.8225 10.45H6.745L5.89 11.9985L5.8615 12.1125C5.8615 12.1755 5.88652 12.2359 5.93106 12.2805C5.9756 12.325 6.03601 12.35 6.099 12.35H17.1V14.25H5.7C5.19609 14.25 4.71282 14.0499 4.3565 13.6935C4.00018 13.3372 3.8 12.8539 3.8 12.35C3.8 12.0175 3.8855 11.704 4.028 11.438L5.32 9.11053L1.9 1.90003H0V3.05176e-05ZM5.7 15.2C6.20391 15.2 6.68718 15.4002 7.0435 15.7565C7.39982 16.1128 7.6 16.5961 7.6 17.1C7.6 17.6039 7.39982 18.0872 7.0435 18.4435C6.68718 18.7999 6.20391 19 5.7 19C5.19609 19 4.71282 18.7999 4.3565 18.4435C4.00018 18.0872 3.8 17.6039 3.8 17.1C3.8 16.0455 4.6455 15.2 5.7 15.2ZM14.25 8.55003L16.891 3.80003H4.883L7.125 8.55003H14.25Z" fill="white"/>
</svg>
