<svg width="24" height="24" viewBox="0 0 24 24" fill="none" xmlns="http://www.w3.org/2000/svg">
<path fill-rule="evenodd" clip-rule="evenodd" d="M4.31242 18.1791C3.89586 18.5956 3.89586 19.271 4.31242 19.6876C4.72898 20.1041 5.40435 20.1041 5.82091 19.6876L12 13.5085L18.1791 19.6876C18.5956 20.1041 19.271 20.1041 19.6876 19.6876C20.1041 19.271 20.1041 18.5956 19.6876 18.1791L13.5085 12L19.6876 5.82091C20.1041 5.40436 20.1041 4.72898 19.6876 4.31242C19.271 3.89586 18.5956 3.89586 18.1791 4.31242L12 10.4915L5.82091 4.31242C5.40435 3.89586 4.72898 3.89586 4.31242 4.31242C3.89586 4.72898 3.89586 5.40436 4.31242 5.82092L10.4915 12L4.31242 18.1791Z" fill="#9CAAB4"/>
</svg>
