<svg width="16" height="15" viewBox="0 0 16 15" fill="none" xmlns="http://www.w3.org/2000/svg">
<path d="M14.1259 0.792219C12.0147 -0.647228 9.40768 0.0245139 8.00022 1.67188C6.59276 0.0245139 3.98576 -0.655225 1.87457 0.792219C0.755005 1.55992 0.0512759 2.85542 0.00329431 4.2229C-0.108663 7.32571 2.64228 9.81275 6.84067 13.6273L6.92063 13.6993C7.5284 14.251 8.46404 14.251 9.07181 13.6913L9.15977 13.6113C13.3582 9.80475 16.1011 7.31771 15.9971 4.2149C15.9492 2.85543 15.2454 1.55992 14.1259 0.792219ZM8.08019 12.4357L8.00022 12.5157L7.92025 12.4357C4.11371 8.98907 1.60268 6.70994 1.60268 4.39883C1.60268 2.79945 2.80222 1.59991 4.4016 1.59991C5.63313 1.59991 6.83267 2.3916 7.25651 3.48718H8.75193C9.16777 2.3916 10.3673 1.59991 11.5988 1.59991C13.1982 1.59991 14.3978 2.79945 14.3978 4.39883C14.3978 6.70994 11.8867 8.98907 8.08019 12.4357Z" fill="white"/>
</svg>
