<svg width="14" height="19" viewBox="0 0 14 19" fill="none" xmlns="http://www.w3.org/2000/svg">
<path d="M6.65 9.02503C6.02011 9.02503 5.41602 8.77481 4.97062 8.32941C4.52522 7.88401 4.275 7.27992 4.275 6.65003C4.275 6.02014 4.52522 5.41605 4.97062 4.97065C5.41602 4.52525 6.02011 4.27503 6.65 4.27503C7.27989 4.27503 7.88398 4.52525 8.32938 4.97065C8.77478 5.41605 9.025 6.02014 9.025 6.65003C9.025 6.96192 8.96357 7.27076 8.84421 7.5589C8.72486 7.84705 8.54992 8.10887 8.32938 8.32941C8.10884 8.54995 7.84702 8.72489 7.55887 8.84424C7.27072 8.9636 6.96189 9.02503 6.65 9.02503ZM6.65 3.05176e-05C4.88631 3.05176e-05 3.19486 0.700653 1.94774 1.94777C0.700623 3.19489 0 4.88634 0 6.65003C0 11.6375 6.65 19 6.65 19C6.65 19 13.3 11.6375 13.3 6.65003C13.3 4.88634 12.5994 3.19489 11.3523 1.94777C10.1051 0.700653 8.41369 3.05176e-05 6.65 3.05176e-05Z" fill="white"/>
</svg>
