<svg width="20" height="19" viewBox="0 0 20 19" fill="none" xmlns="http://www.w3.org/2000/svg">
<path fill-rule="evenodd" clip-rule="evenodd" d="M6.78571 0C5.01599 0 3.58134 1.47563 3.58134 3.29592V5.23469H5.46627V3.29592C5.46627 2.54639 6.057 1.93878 6.78571 1.93878H16.5873C17.316 1.93878 17.9067 2.54639 17.9067 3.29592V15.7041C17.9067 16.4536 17.316 17.0612 16.5873 17.0612H6.78571C6.057 17.0612 5.46627 16.4536 5.46627 15.7041V14.1531H3.58134V15.7041C3.58134 17.5244 5.01599 19 6.78571 19H16.5873C18.357 19 19.7917 17.5244 19.7917 15.7041V3.29592C19.7917 1.47563 18.357 0 16.5873 0H6.78571ZM13.8609 8.81454L9.71404 4.54923L8.3812 5.92015L10.9191 8.53061H0V10.4694H10.9191L8.3812 13.0798L9.71404 14.4508L13.8609 10.1855C14.2289 9.80689 14.2289 9.19311 13.8609 8.81454Z" fill="white"/>
</svg>
