<svg width="230" height="33" viewBox="0 0 230 33" fill="none" xmlns="http://www.w3.org/2000/svg">
<g clip-path="url(#clip0)">
<path d="M62.9118 32.1699V26.9085H66.2942V27.2091H63.2125V32.1699H62.9118Z" fill="#010101"/>
<path d="M68.9249 32.1699V26.9085H71.1046C72.1569 26.9085 72.7582 27.5098 72.7582 28.3366C72.7582 29.1634 72.1569 29.7647 71.1046 29.7647H69.3007V32.1699H68.9249ZM69.3007 29.3889H71.1046C71.9314 29.3889 72.3824 29.0131 72.3824 28.2614C72.3824 27.585 71.9314 27.2091 71.1046 27.2091H69.3007V29.3889Z" fill="#010101"/>
<path d="M75.3138 32.1699V31.8693C75.4641 31.9444 75.6896 31.9444 75.8399 31.9444C76.2909 31.9444 76.5915 31.5686 76.9674 30.817V30.7418L74.8628 26.9085H75.2386L77.1929 30.366L78.7713 26.9085H79.1471L77.1929 31.0425C76.817 31.9444 76.4412 32.2451 75.9151 32.2451C75.6896 32.2451 75.4641 32.1699 75.3138 32.1699Z" fill="#010101"/>
<path d="M81.6275 32.1699V26.9085H85.6112V32.1699H85.2353V27.2091H81.9282V32.1699H81.6275Z" fill="#010101"/>
<path d="M88.768 32.1699V26.9085H92.7517V32.1699H92.451V27.2091H89.1438V32.1699H88.768Z" fill="#010101"/>
<path d="M95.3072 32.1699L97.7124 26.9085H98.0131L100.418 32.1699H100.042L99.366 30.5915H96.4346L95.7582 32.1699H95.3072ZM96.5098 30.2908H99.2157L97.8628 27.2843L96.5098 30.2908Z" fill="#010101"/>
<path d="M106.507 32.1699V26.9085H106.882V29.2385L109.588 26.9085H110.039L107.258 29.3137L110.415 32.1699H109.889L106.807 29.4641V32.1699H106.507Z" fill="#010101"/>
<path d="M112.971 31.4935C112.444 30.9673 112.219 30.366 112.219 29.5392C112.219 28.7876 112.444 28.1111 112.971 27.585C113.497 27.0588 114.098 26.8333 114.85 26.8333C115.601 26.8333 116.203 27.0588 116.729 27.585C117.255 28.1111 117.48 28.7124 117.48 29.5392C117.48 30.2908 117.255 30.9673 116.729 31.4935C116.203 32.0196 115.601 32.2451 114.85 32.2451C114.098 32.2451 113.422 31.9444 112.971 31.4935ZM114.85 31.8693C115.451 31.8693 116.052 31.6438 116.428 31.1928C116.879 30.7418 117.105 30.1405 117.105 29.4641C117.105 28.7876 116.879 28.1863 116.428 27.7353C115.977 27.2843 115.451 27.0588 114.85 27.0588C114.248 27.0588 113.647 27.2843 113.271 27.7353C112.82 28.1863 112.595 28.7876 112.595 29.4641C112.595 30.1405 112.82 30.7418 113.271 31.1928C113.722 31.6438 114.173 31.8693 114.85 31.8693Z" fill="#010101"/>
<path d="M120.261 32.1699V26.9085H120.637L122.667 29.6144L124.696 26.9085H125.072V32.1699H124.696V27.4346L122.742 29.9902H122.516L120.562 27.4346V32.1699H120.261Z" fill="#010101"/>
<path d="M128.154 32.1699V26.9085H132.137V32.1699H131.761V27.2091H128.529V32.1699H128.154Z" fill="#010101"/>
<path d="M134.693 32.1699L137.098 26.9085H137.399L139.804 32.1699H139.428L138.752 30.5915H135.82L135.144 32.1699H134.693ZM135.895 30.2908H138.601L137.248 27.2843L135.895 30.2908Z" fill="#010101"/>
<path d="M142.359 32.1699V26.9085H142.735V29.1634H146.193V26.9085H146.569V32.1699H146.193V29.5392H142.735V32.1699H142.359Z" fill="#010101"/>
<path d="M149.575 32.1699V26.9085H149.951V31.5686L153.484 26.9085H153.784V32.1699H153.409V27.5098L149.876 32.1699H149.575Z" fill="#010101"/>
<path d="M156.866 32.1699V26.9085H157.242V31.5686L160.775 26.9085H161.075V32.1699H160.699V27.5098L157.167 32.1699H156.866ZM157.843 25.4052H158.144C158.144 25.8562 158.52 26.1568 159.046 26.1568C159.572 26.1568 159.873 25.8562 159.873 25.4052H160.173C160.173 26.0065 159.647 26.4575 159.046 26.4575C158.294 26.4575 157.843 26.0817 157.843 25.4052Z" fill="#010101"/>
<path fill-rule="evenodd" clip-rule="evenodd" d="M43.8203 -0.0751813V3.68299L32.9216 11.3497L21.6471 3.45751L10.8236 11.4248L-0.0751343 3.68299V-0.0751813L10.8236 7.66666L21.8726 -0.225494L32.9216 7.5915L43.8203 -0.0751813Z" fill="#1D3E81"/>
<path fill-rule="evenodd" clip-rule="evenodd" d="M43.8203 8.56862V12.3268L32.9216 19.9935V20.0686V19.9935L21.8726 11.951L10.8236 20.0686L-0.0751343 12.3268V8.56862L10.8236 16.3105L21.8726 8.4183L32.9216 16.3105L43.8203 8.56862Z" fill="#02509D"/>
<path fill-rule="evenodd" clip-rule="evenodd" d="M43.8203 17.0621V20.8202L32.9216 28.4869V28.5621V28.4869L21.8726 20.4444L10.8236 28.5621L-0.0751343 20.8202V17.0621L10.8236 24.8039L21.8726 16.9117L32.9216 24.8039L43.8203 17.0621Z" fill="#1182C5"/>
<path d="M79.5229 20.219L72.5327 3.90851L65.4673 20.219H63.2124L56.2222 0.601299H59.4543L62.9869 10.6732C63.2124 11.3497 63.4379 12.0261 63.6634 12.7778C63.8889 13.5294 64.1144 14.2059 64.3399 14.8823L64.7157 16.085L65.1667 14.8823C65.3922 14.2059 65.6928 13.5294 65.9183 12.8529C66.219 12.1765 66.5196 11.4248 66.8203 10.7484L71.2549 0.526154H74.3366L78.6209 10.6732C78.9216 11.3497 79.2222 12.0261 79.5229 12.7026C79.8235 13.3791 80.049 14.0556 80.3497 14.732L80.8007 16.0098L81.1765 14.732C81.402 14.0556 81.5523 13.3791 81.7778 12.6274C82.0033 11.951 82.2288 11.1993 82.5294 10.5229L86.3627 0.601299H89.5196L81.8529 20.219H79.5229Z" fill="#14161E"/>
<path d="M96.0588 20.2189V17.3627H100.794V3.53268H96.0588V0.601288H108.386V3.53268H103.726V17.3627H108.386V20.2189H96.0588Z" fill="#14161E"/>
<path d="M116.353 20.2189V18.0392L132.588 3.53268H117.255V0.676453H137.324V2.78104L120.938 17.3627H137.699V20.2189H116.353Z" fill="#14161E"/>
<path d="M165.435 20.2189L162.654 15.3333H148.373L145.592 20.2189H142.585L153.709 0.601288H157.543L168.592 20.2189H165.435ZM155.137 3.23201C154.837 3.98364 154.536 4.58495 154.235 5.11109C153.935 5.7124 153.559 6.31372 153.258 6.83986L149.65 13.2288H161.451L157.768 6.7647C157.467 6.16339 157.092 5.63725 156.791 5.03595C156.49 4.43464 156.19 3.83331 155.889 3.23201L155.513 2.40523L155.137 3.23201Z" fill="#14161E"/>
<path d="M193.095 20.2189L186.706 12.6274H178.288V20.2189H175.356V0.601288H188.359C189.712 0.601288 190.915 0.901946 192.042 1.42809C193.17 1.95423 194.072 2.63072 194.748 3.53268C195.425 4.43464 195.726 5.41176 195.726 6.53921C195.726 7.36601 195.5 8.1928 195.049 8.94443C194.598 9.69606 193.997 10.3725 193.17 10.9739C192.418 11.5752 191.441 11.951 190.464 12.2516L189.863 12.4019L196.552 20.2189H193.095ZM178.288 10.5229H187.608C188.51 10.5229 189.337 10.3725 190.088 9.99671C190.84 9.6209 191.441 9.16992 191.967 8.56861C192.418 7.96731 192.719 7.29085 192.719 6.53921C192.719 5.78758 192.493 5.11111 191.967 4.58496C191.516 4.05882 190.84 3.60783 190.013 3.30717C189.261 3.00652 188.359 2.85619 187.458 2.85619H178.363V10.5229H178.288Z" fill="#14161E"/>
<path d="M205.422 20.2189V0.601288H216.997C219.176 0.601288 221.056 0.901941 222.709 1.35292C224.363 1.87907 225.716 2.63072 226.768 3.53268C227.82 4.43464 228.647 5.48691 229.173 6.68953C229.699 7.89214 230 9.16992 230 10.4477C230 12.2516 229.549 13.9052 228.572 15.3333C227.595 16.8366 226.167 18.0392 224.212 18.866C222.258 19.768 219.853 20.2189 216.922 20.2189H205.422ZM208.428 18.0392H216.846C219.176 18.0392 221.056 17.7386 222.559 17.0621C224.062 16.3856 225.114 15.4836 225.866 14.281C226.542 13.1536 226.918 11.8758 226.918 10.4477C226.918 9.09476 226.542 7.81698 225.866 6.68953C225.19 5.56208 224.062 4.58497 222.559 3.9085C221.056 3.23202 219.176 2.85619 216.922 2.85619H208.503V18.0392H208.428Z" fill="#14161E"/>
</g>
<defs>
<clipPath id="clip0">
<rect width="230" height="32.3203" fill="white"/>
</clipPath>
</defs>
</svg>
