<svg width="200" height="29" viewBox="0 0 200 29" fill="none" xmlns="http://www.w3.org/2000/svg">
<g clip-path="url(#clip0)">
<path d="M54.7054 27.9736V23.3984H57.6466V23.6599H54.9668V27.9736H54.7054Z" fill="white"/>
<path d="M59.9343 27.9736V23.3984H61.8297C62.7448 23.3984 63.2676 23.9213 63.2676 24.6403C63.2676 25.3592 62.7448 25.8821 61.8297 25.8821H60.2611V27.9736H59.9343ZM60.2611 25.5553H61.8297C62.5487 25.5553 62.9408 25.2285 62.9408 24.5749C62.9408 23.9867 62.5487 23.6599 61.8297 23.6599H60.2611V25.5553Z" fill="white"/>
<path d="M65.4897 27.9736V27.7122C65.6204 27.7775 65.8165 27.7775 65.9472 27.7775C66.3394 27.7775 66.6008 27.4507 66.9276 26.7971V26.7318L65.0975 23.3984H65.4243L67.1237 26.405L68.4962 23.3984H68.823L67.1237 26.9932C66.7969 27.7775 66.4701 28.039 66.0126 28.039C65.8165 28.039 65.6204 27.9736 65.4897 27.9736Z" fill="white"/>
<path d="M70.98 27.9736V23.3984H74.4441V27.9736H74.1173V23.6599H71.2415V27.9736H70.98Z" fill="white"/>
<path d="M77.189 27.9736V23.3984H80.653V27.9736H80.3916V23.6599H77.5158V27.9736H77.189Z" fill="white"/>
<path d="M82.8754 27.9736L84.9669 23.3984H85.2283L87.3198 27.9736H86.993L86.4048 26.6011H83.8558L83.2675 27.9736H82.8754ZM83.9211 26.3396H86.2741L85.0976 23.7252L83.9211 26.3396Z" fill="white"/>
<path d="M92.614 27.9736V23.3984H92.9408V25.4246L95.2937 23.3984H95.6858L93.2675 25.4899L96.0126 27.9736H95.5551L92.8754 25.6207V27.9736H92.614Z" fill="white"/>
<path d="M98.2348 27.3853C97.7773 26.9278 97.5812 26.4049 97.5812 25.6859C97.5812 25.0323 97.7773 24.4441 98.2348 23.9866C98.6923 23.5291 99.2152 23.333 99.8688 23.333C100.522 23.333 101.045 23.5291 101.503 23.9866C101.96 24.4441 102.156 24.967 102.156 25.6859C102.156 26.3395 101.96 26.9278 101.503 27.3853C101.045 27.8428 100.522 28.0389 99.8688 28.0389C99.2152 28.0389 98.6269 27.7774 98.2348 27.3853ZM99.8688 27.7121C100.392 27.7121 100.915 27.516 101.241 27.1238C101.633 26.7317 101.83 26.2088 101.83 25.6206C101.83 25.0324 101.633 24.5095 101.241 24.1173C100.849 23.7252 100.392 23.5291 99.8688 23.5291C99.3459 23.5291 98.823 23.7252 98.4962 24.1173C98.1041 24.5095 97.908 25.0324 97.908 25.6206C97.908 26.2088 98.1041 26.7317 98.4962 27.1238C98.8884 27.516 99.2805 27.7121 99.8688 27.7121Z" fill="white"/>
<path d="M104.575 27.9736V23.3984H104.901L106.666 25.7514L108.431 23.3984H108.758V27.9736H108.431V23.856L106.731 26.0782H106.535L104.836 23.856V27.9736H104.575Z" fill="white"/>
<path d="M111.438 27.9736V23.3984H114.902V27.9736H114.575V23.6599H111.764V27.9736H111.438Z" fill="white"/>
<path d="M117.124 27.9736L119.215 23.3984H119.477L121.568 27.9736H121.241L120.653 26.6011H118.104L117.516 27.9736H117.124ZM118.169 26.3396H120.522L119.346 23.7252L118.169 26.3396Z" fill="white"/>
<path d="M123.79 27.9736V23.3984H124.117V25.3592H127.124V23.3984H127.45V27.9736H127.124V25.686H124.117V27.9736H123.79Z" fill="white"/>
<path d="M130.065 27.9736V23.3984H130.392V27.4507L133.464 23.3984H133.725V27.9736H133.398V23.9213L130.326 27.9736H130.065Z" fill="white"/>
<path d="M136.405 27.9737V23.3985H136.731V27.4508L139.803 23.3985H140.065V27.9737H139.738V23.9214L136.666 27.9737H136.405ZM137.254 22.0913H137.516C137.516 22.4835 137.843 22.7449 138.3 22.7449C138.758 22.7449 139.019 22.4835 139.019 22.0913H139.28C139.28 22.6142 138.823 23.0064 138.3 23.0064C137.646 23.0064 137.254 22.6795 137.254 22.0913Z" fill="white"/>
<path fill-rule="evenodd" clip-rule="evenodd" d="M38.1049 -0.0655821V3.20239L28.6277 9.86907L18.8238 3.00632L9.41206 9.93443L-0.0650635 3.20239V-0.0655821L9.41206 6.66646L19.0199 -0.196289L28.6277 6.60109L38.1049 -0.0655821Z" fill="white"/>
<path fill-rule="evenodd" clip-rule="evenodd" d="M38.1045 7.45053V10.7185L28.6274 17.3852V17.4505V17.3852L19.0195 10.3917L9.41169 17.4505L-0.0654297 10.7185V7.45053L9.41169 14.1826L19.0195 7.31982L28.6274 14.1826L38.1045 7.45053Z" fill="white"/>
<path fill-rule="evenodd" clip-rule="evenodd" d="M38.1045 14.8363V18.1043L28.6274 24.7709V24.8363V24.7709L19.0195 17.7775L9.41169 24.8363L-0.0654297 18.1043V14.8363L9.41169 21.5683L19.0195 14.7056L28.6274 21.5683L38.1045 14.8363Z" fill="white"/>
<path d="M69.1502 17.5812L63.0718 3.39821L56.928 17.5812H54.9672L48.8888 0.522375H51.6993L54.7711 9.28056C54.9672 9.8688 55.1633 10.457 55.3594 11.1106C55.5555 11.7642 55.7516 12.3524 55.9476 12.9407L56.2744 13.9864L56.6666 12.9407C56.8627 12.3524 57.1241 11.7642 57.3202 11.176C57.5816 10.5877 57.843 9.93414 58.1045 9.3459L61.9607 0.457031H64.6404L68.3659 9.28056C68.6274 9.8688 68.8888 10.457 69.1502 11.0453C69.4117 11.6335 69.6078 12.2217 69.8692 12.81L70.2614 13.9211L70.5882 12.81C70.7842 12.2217 70.9149 11.6335 71.111 10.9799C71.3071 10.3917 71.5032 9.73807 71.7646 9.14983L75.098 0.522375H77.8431L71.1764 17.5812H69.1502Z" fill="white"/>
<path d="M83.5297 17.5808V15.0971H87.6474V3.07101H83.5297V0.521973H94.2487V3.07101H90.1964V15.0971H94.2487V17.5808H83.5297Z" fill="white"/>
<path d="M101.177 17.5814V15.6859L115.294 3.07156H101.961V0.587891H119.412V2.41797L105.163 15.0977H119.739V17.5814H101.177Z" fill="white"/>
<path d="M143.856 17.5808L141.438 13.3324H129.02L126.601 17.5808H123.987L133.66 0.521973H136.994L146.601 17.5808H143.856ZM134.902 2.80955C134.641 3.46315 134.379 3.98602 134.118 4.44354C133.856 4.96642 133.53 5.4893 133.268 5.94682L130.131 11.5024H140.392L137.19 5.88146C136.928 5.35858 136.601 4.90107 136.34 4.3782C136.079 3.85532 135.817 3.33243 135.556 2.80955L135.229 2.09062L134.902 2.80955Z" fill="white"/>
<path d="M167.909 17.5808L162.353 10.9795H155.033V17.5808H152.484V0.521973H163.791C164.968 0.521973 166.013 0.783415 166.994 1.24093C167.974 1.69845 168.758 2.28669 169.347 3.07101C169.935 3.85532 170.196 4.70499 170.196 5.68539C170.196 6.40434 170 7.12328 169.608 7.77688C169.216 8.43047 168.693 9.01872 167.974 9.54159C167.321 10.0645 166.471 10.3913 165.621 10.6527L165.098 10.7834L170.915 17.5808H167.909ZM155.033 9.14943H163.138C163.922 9.14943 164.641 9.0187 165.294 8.69191C165.948 8.36511 166.471 7.97296 166.928 7.45008C167.321 6.92721 167.582 6.33898 167.582 5.68539C167.582 5.03179 167.386 4.44355 166.928 3.98604C166.536 3.52852 165.948 3.13636 165.229 2.87492C164.575 2.61348 163.791 2.48276 163.007 2.48276H155.098V9.14943H155.033Z" fill="white"/>
<path d="M178.628 17.5808V0.521973H188.693C190.589 0.521973 192.223 0.783411 193.66 1.17557C195.098 1.63308 196.275 2.28669 197.19 3.07101C198.105 3.85532 198.824 4.77034 199.281 5.81609C199.739 6.86185 200 7.97296 200 9.08407C200 10.6527 199.608 12.0906 198.759 13.3324C197.909 14.6396 196.667 15.6854 194.968 16.4043C193.268 17.1887 191.177 17.5808 188.628 17.5808H178.628ZM181.242 15.6854H188.562C190.589 15.6854 192.223 15.4239 193.53 14.8357C194.837 14.2475 195.752 13.4632 196.406 12.4174C196.994 11.437 197.321 10.3259 197.321 9.08407C197.321 7.9076 196.994 6.79649 196.406 5.81609C195.817 4.8357 194.837 3.98604 193.53 3.39781C192.223 2.80957 190.589 2.48276 188.628 2.48276H181.308V15.6854H181.242Z" fill="white"/>
</g>
<defs>
<clipPath id="clip0">
<rect width="200" height="28.1046" fill="white"/>
</clipPath>
</defs>
</svg>
